<svg width="100%" height="100%" viewBox="0 0 100 28" fill="none" xmlns="http://www.w3.org/2000/svg">
<path d="M48.2433 13.916C48.2433 11.2187 48.9056 9.04333 50.2302 7.38989C51.5548 5.73644 53.3767 4.90972 55.6958 4.90972C58.0149 4.90972 59.8368 5.73644 61.1614 7.38989C62.486 9.04333 63.1483 11.2187 63.1483 13.916C63.1483 16.6133 62.486 18.7887 61.1614 20.4421C59.8368 22.0956 58.0149 22.9223 55.6958 22.9223C53.3767 22.9223 51.5548 22.0956 50.2302 20.4421C48.9056 18.7887 48.2433 16.6133 48.2433 13.916ZM51.8105 13.916C51.8105 15.6881 52.1793 17.072 52.9168 18.0677C53.6543 19.0634 54.593 19.5613 55.7317 19.5613C56.8704 19.5613 57.817 19.0634 58.5724 18.0677C59.3278 17.072 59.7055 15.6881 59.7055 13.916C59.7055 12.1438 59.3278 10.7621 58.5724 9.76637C57.817 8.77064 56.8704 8.27278 55.7317 8.27278C54.593 8.27278 53.6543 8.77064 52.9168 9.76637C52.1793 10.7621 51.8105 12.1438 51.8105 13.916Z" fill="#545454"/>
<path d="M64.7217 5.24585H68.2173V22.5862H64.7217V5.24585Z" fill="#545454"/>
<path d="M73.4912 22.5862H69.9395V10.2312L69.8517 10.2709L66.7262 14.5962L66.525 14.8938L65.4042 16.4891L69.1912 22.5862H71.4923V10.2312L71.5801 10.1914L74.7056 14.5962L74.9068 14.8938L75.9996 16.4891L72.2407 22.5862H73.4912Z" fill="#F7A51D"/>
<path d="M79.7915 22.5862H76.2959V5.24585H79.7915V22.5862Z" fill="#545454"/>
<path d="M83.0781 12.9814L86.2915 5.24585H90.0785L85.7443 14.992L90.2307 22.5862H86.4157L83.0781 15.6881V12.9814Z" fill="#F7A51D"/>
<path d="M89.7099 22.5862H93.1048L89.7099 17.044V22.5862Z" fill="#545454"/>
<path d="M2.51855 10.9639H6.18413V12.949H2.51855V10.9639Z" fill="#545454"/>
<path d="M2.51855 14.8877H6.18413V16.8728H2.51855V14.8877Z" fill="#F7A51D"/>
<path d="M7.70215 10.9639H11.3677V12.949H7.70215V10.9639Z" fill="#545454"/>
<path d="M7.70215 14.8877H11.3677V16.8728H7.70215V14.8877Z" fill="#F7A51D"/>
<path d="M16.5947 16.1816C16.5947 15.4219 16.4862 14.82 16.269 14.3759C16.0519 13.9319 15.7533 13.5861 15.3734 13.3387C14.9935 13.0913 14.5441 12.9676 14.0253 12.9676C13.5065 12.9676 13.0571 13.0913 12.6772 13.3387C12.2973 13.5861 11.9987 13.9319 11.7816 14.3759C11.5644 14.82 11.4558 15.4219 11.4558 16.1816V22.5862H12.9739V16.538C12.9739 16.036 13.0645 15.6323 13.2458 15.3268C13.427 15.0212 13.6841 14.8685 14.0171 14.8685C14.3501 14.8685 14.6072 15.0212 14.7884 15.3268C14.9697 15.6323 15.0603 16.036 15.0603 16.538V22.5862H16.5947V16.1816Z" fill="#545454"/>
<path d="M18.1729 22.5862H19.6909V13.3108H18.1729V22.5862Z" fill="#545454"/>
<path d="M22.9551 16.1816C22.9551 15.4219 22.8465 14.82 22.6294 14.3759C22.4122 13.9319 22.1137 13.5861 21.7338 13.3387C21.3539 13.0913 20.9045 12.9676 20.3857 12.9676C19.8669 12.9676 19.4175 13.0913 19.0376 13.3387C18.6577 13.5861 18.3591 13.9319 18.142 14.3759C17.9248 14.82 17.8162 15.4219 17.8162 16.1816V22.5862H19.3343V16.538C19.3343 16.036 19.4249 15.6323 19.6061 15.3268C19.7874 15.0212 20.0445 14.8685 20.3775 14.8685C20.7105 14.8685 20.9676 15.0212 21.1488 15.3268C21.3301 15.6323 21.4207 16.036 21.4207 16.538V22.5862H22.9551V16.1816Z" fill="#545454"/>
<path d="M29.5878 13.3108L27.6718 19.1437H27.6185L25.7025 13.3108H24.0322V22.5862H25.4688V15.2285L25.538 15.2285L27.139 20.528H28.163L29.764 15.2285L29.8332 15.2285V22.5862H31.1211V13.3108H29.5878Z" fill="#F7A51D"/>
<path d="M36.4299 18.0677C36.4299 18.8274 36.3128 19.4293 36.0784 19.8733C35.844 20.3173 35.5283 20.6631 35.1311 20.9105C34.7339 21.1579 34.2673 21.2816 33.7313 21.2816C33.1953 21.2816 32.7287 21.1579 32.3315 20.9105C31.9343 20.6631 31.6187 20.3173 31.3843 19.8733C31.1499 19.4293 31.0327 18.8274 31.0327 18.0677V13.3108H32.5508V17.9694C32.5508 18.4219 32.6514 18.7761 32.8526 19.0315C33.0538 19.2869 33.3456 19.4146 33.7275 19.4146C34.1094 19.4146 34.4012 19.2869 34.6024 19.0315C34.8036 18.7761 34.9042 18.4219 34.9042 17.9694V13.3108H36.4299V18.0677Z" fill="#545454"/>
<path d="M42.2793 18.6791L43.8347 13.3108H45.505L42.502 22.5862H40.7676L37.7646 13.3108H39.435L40.9904 18.6791L42.2793 18.6791Z" fill="#F7A51D"/>
</svg>
